<mxfile host="app.diagrams.net" modified="2023-09-23T14:59:52.561Z" agent="Mozilla/5.0 (Windows NT 10.0; Win64; x64) AppleWebKit/537.36 (KHTML, like Gecko) Chrome/117.0.0.0 Safari/537.36" version="21.8.1" etag="Un9lr6HYe1JGGmZFExai" type="github">
  <diagram name="Page-1" id="7ZhIR4TqCh4ufvg9z-OK">
    <mxGraphModel>
      <root>
        <mxCell id="0" />
        <mxCell id="1" parent="0" />
      </root>
    </mxGraphModel>
  </diagram>
</mxfile>
